<?xml version="1.0" encoding="UTF-8"?>
<svg width="17px" height="19px" viewBox="0 0 17 19" version="1.1" xmlns="http://www.w3.org/2000/svg" xmlns:xlink="http://www.w3.org/1999/xlink">
    <!-- Generator: Sketch 48.2 (47327) - http://www.bohemiancoding.com/sketch -->
    <title>history</title>
    <desc>Created with Sketch.</desc>
    <defs></defs>
    <g id="iPhone-SE" stroke="none" stroke-width="1" fill="none" fill-rule="evenodd" transform="translate(-199.000000, -288.000000)">
        <g id="History" transform="translate(199.000000, 287.000000)" fill="#000000" fill-rule="nonzero">
            <g id="history" transform="translate(0.000000, 1.000000)">
                <path d="M15.5238095,12.9473684 L12.952381,12.9473684 L12.952381,10.5263158 C12.952381,10.2105263 12.7619048,10 12.4761905,10 C12.1904762,10 12,10.2105263 12,10.5263158 L12,13.4736842 C12,13.7894737 12.1904762,14 12.4761905,14 L15.5238095,14 C15.8095238,14 16,13.7894737 16,13.4736842 C16,13.1578947 15.7619048,12.9473684 15.5238095,12.9473684 Z" id="Shape"></path>
                <path d="M12,9 C12,9 12,9 12,9 C9.24770642,9 7,11.2477064 7,14 C7,16.7522936 9.24770642,19 12,19 C12,19 12,19 12,19 C14.7522936,19 17,16.7522936 17,14 C17,11.2477064 14.7522936,9.04587156 12,9 Z M12,18.0825688 C9.75229358,18.0825688 7.91743119,16.2477064 7.91743119,14 C7.91743119,11.7522936 9.75229358,9.91743119 12,9.91743119 C14.2477064,9.91743119 16.0825688,11.7522936 16.0825688,14 C16.0366972,16.293578 14.2477064,18.0825688 12,18.0825688 Z" id="Shape"></path>
                <path d="M12,6.5 C12,6.2 11.8243902,6 11.5609756,6 L3.43902439,6 C3.17560976,6 3,6.2 3,6.5 C3,6.8 3.17560976,7 3.43902439,7 L11.5609756,7 C11.7804878,7 12,6.8 12,6.5 Z" id="Shape"></path>
                <path d="M7,10.5 C7,10.2 6.81176471,10 6.52941176,10 L3.47058824,10 C3.18823529,10 3,10.2 3,10.5 C3,10.8 3.18823529,11 3.47058824,11 L6.52941176,11 C6.81176471,11 7,10.75 7,10.5 Z" id="Shape"></path>
                <path d="M3.42857143,13 C3.17142857,13 3,13.2 3,13.5 C3,13.8 3.17142857,14 3.42857143,14 L5.57142857,14 C5.82857143,14 6,13.8 6,13.5 C6,13.2 5.82857143,13 5.57142857,13 L3.42857143,13 Z" id="Shape"></path>
                <path d="M8.01362398,18.05 L0.926430518,18.05 L0.926430518,0.95 L4.07629428,0.95 L4.07629428,1.6625 C4.07629428,2.28 4.53950954,2.85 5.14168937,2.85 C5.373297,2.85 11.3487738,2.8975 11.9046322,2.85 C12.506812,2.85 12.9700272,2.3275 12.9237057,1.71 L12.9237057,0.9975 L16.0735695,0.9975 L16.0735695,9.12 C16.0735695,9.405 16.2588556,9.595 16.5367847,9.595 C16.8147139,9.595 17,9.405 17,9.12 L17,0.5225 C17,0.2375 16.8147139,0.0475 16.5367847,0.0475 L12.4604905,0.0475 C12.1825613,0.0475 11.9972752,0.2375 11.9972752,0.5225 L11.9972752,1.71 C11.9972752,1.8525 11.9046322,1.9475 11.8119891,1.9475 C11.8119891,1.9475 11.8119891,1.9475 11.7656676,1.9475 C11.626703,1.9475 5.373297,1.9475 5.1880109,1.9475 C5.04904632,1.9475 4.95640327,1.8525 4.95640327,1.71 C4.95640327,1.71 4.95640327,1.6625 4.95640327,1.6625 L4.95640327,0.475 C4.95640327,0.19 4.77111717,0 4.49318801,0 L0.463215259,0 C0.185286104,0 0,0.19 0,0.475 L0,18.525 C0,18.81 0.185286104,19 0.463215259,19 L8.01362398,19 C8.29155313,19 8.47683924,18.81 8.47683924,18.525 C8.47683924,18.24 8.24523161,18.05 8.01362398,18.05 Z" id="Shape"></path>
                <path d="M6.45454545,1 L10.5454545,1 C10.8181818,1 11,0.8 11,0.5 C11,0.2 10.8181818,0 10.5454545,0 L6.45454545,0 C6.18181818,0 6,0.2 6,0.5 C6,0.8 6.22727273,1 6.45454545,1 Z" id="Shape"></path>
            </g>
        </g>
    </g>
</svg>