<?xml version="1.0" encoding="UTF-8"?>
<svg width="21px" height="21px" viewBox="0 0 21 21" version="1.1" xmlns="http://www.w3.org/2000/svg" xmlns:xlink="http://www.w3.org/1999/xlink">
    <!-- Generator: Sketch 48.2 (47327) - http://www.bohemiancoding.com/sketch -->
    <title>info</title>
    <desc>Created with Sketch.</desc>
    <defs></defs>
    <g id="iPhone-SE" stroke="none" stroke-width="1" fill="none" fill-rule="evenodd" transform="translate(-160.000000, -323.000000)">
        <g id="info" transform="translate(160.000000, 323.000000)" fill="#828282" fill-rule="nonzero">
            <path d="M10.5,0 C4.70076923,0 0,4.70076923 0,10.5 C0,16.2992308 4.70076923,21 10.5,21 C16.2992308,21 21,16.2992308 21,10.5 C21,4.70076923 16.2992308,0 10.5,0 Z M12.1468846,14.3631923 C11.3545385,15.5529231 10.5484615,16.4696538 9.19234615,16.4696538 C8.26673077,16.3186154 7.88630769,15.6555 8.08661538,14.9794615 L9.83123077,9.20123077 C9.87403846,9.05988462 9.80296154,8.90884615 9.67373077,8.86280769 C9.54530769,8.81757692 9.29330769,8.98476923 9.07523077,9.22384615 L8.02038462,10.4927308 C7.99211538,10.2795 8.01715385,9.92734615 8.01715385,9.78519231 C8.8095,8.59546154 10.1115,7.65692308 10.9943077,7.65692308 C11.8335,7.74253846 12.2308846,8.41373077 12.0846923,9.15115385 L10.3279615,14.9576538 C10.3045385,15.0885 10.374,15.2217692 10.4927308,15.2637692 C10.6219615,15.309 10.8933462,15.1418077 11.1122308,14.9027308 L12.1662692,13.6346538 C12.1945385,13.8478846 12.1468846,14.2210385 12.1468846,14.3631923 Z M11.9118462,6.81611538 C11.2446923,6.81611538 10.7035385,6.32988462 10.7035385,5.61426923 C10.7035385,4.89865385 11.2446923,4.41323077 11.9118462,4.41323077 C12.579,4.41323077 13.1201538,4.89946154 13.1201538,5.61426923 C13.1201538,6.33069231 12.579,6.81611538 11.9118462,6.81611538 Z" id="Shape"></path>
        </g>
    </g>
</svg>