<?xml version="1.0" encoding="UTF-8"?>
<svg width="21px" height="21px" viewBox="0 0 21 21" version="1.1" xmlns="http://www.w3.org/2000/svg" xmlns:xlink="http://www.w3.org/1999/xlink">
    <!-- Generator: Sketch 48.2 (47327) - http://www.bohemiancoding.com/sketch -->
    <title>setting</title>
    <desc>Created with Sketch.</desc>
    <defs></defs>
    <g id="iPhone-SE" stroke="none" stroke-width="1" fill="none" fill-rule="evenodd" transform="translate(-150.000000, -319.000000)">
        <g id="setting" transform="translate(150.000000, 319.000000)" fill="#828282" fill-rule="nonzero">
            <path d="M18.5156014,11.5237436 C18.5587703,11.1877284 18.5911201,10.8464893 18.5911201,10.5 C18.5911201,10.1535107 18.5587434,9.81227155 18.5156014,9.47625643 L20.7980529,7.73850698 C21.0031055,7.58099989 21.0624628,7.29751339 20.9275598,7.06650299 L18.7692191,3.42824677 C18.634316,3.20248661 18.3537447,3.10800861 18.1109192,3.20248661 L15.4237586,4.25775785 C14.8679851,3.84298918 14.2582503,3.49127586 13.5999504,3.22351381 L13.1952683,0.440993595 C13.1467032,0.194258742 12.9254892,0 12.6556561,0 L8.33892075,0 C8.06914166,0 7.84790067,0.194258742 7.8047317,0.440993595 L7.40004956,3.22351381 C6.7417497,3.49127586 6.13198796,3.8377652 5.5762414,4.25775785 L2.88908077,3.20248661 C2.6462553,3.1132326 2.36568396,3.20248661 2.23078092,3.42824677 L0.0724402042,7.06650299 C-0.0624628356,7.29226315 -0.00310549804,7.57574966 0.201947122,7.73850698 L2.47902949,9.47625643 C2.43586052,9.81227155 2.40348379,10.1535107 2.40348379,10.5 C2.40348379,10.8465156 2.43586052,11.1877284 2.47902949,11.5237436 L0.201947122,13.261493 C-0.00310549804,13.4190001 -0.0624628356,13.7024866 0.0724402042,13.933497 L2.23078092,17.5717532 C2.36568396,17.7975134 2.6462553,17.8919914 2.88908077,17.7975134 L5.5762414,16.7422422 C6.13201495,17.1570108 6.7417497,17.5087241 7.40004956,17.7764862 L7.8047317,20.5590064 C7.84790067,20.8057413 8.06914166,21 8.33892075,21 L12.6556561,21 C12.9254352,21 13.1466762,20.8057413 13.1898452,20.5590064 L13.5945273,17.7764862 C14.2528272,17.5087241 14.8625889,17.1622348 15.4183355,16.7422422 L18.1054961,17.7975134 C18.3483216,17.8867674 18.6288929,17.7975134 18.763796,17.5717532 L20.9221367,13.933497 C21.0570397,13.7077368 20.9976824,13.4242503 20.7926298,13.261493 L18.5155744,11.5237436 L18.5156014,11.5237436 Z M10.4972884,14.1749816 C8.40909732,14.1749816 6.72016522,12.5317102 6.72016522,10.4999737 C6.72016522,8.46823732 8.40909732,6.82496587 10.4972884,6.82496587 C12.5854796,6.82496587 14.2744117,8.46823732 14.2744117,10.4999737 C14.2744117,12.5317102 12.5854796,14.1749816 10.4972884,14.1749816 Z" id="Shape"></path>
        </g>
    </g>
</svg>