<?xml version="1.0" encoding="UTF-8"?>
<svg width="17px" height="16px" viewBox="0 0 17 16" version="1.1" xmlns="http://www.w3.org/2000/svg" xmlns:xlink="http://www.w3.org/1999/xlink">
    <!-- Generator: Sketch 48.2 (47327) - http://www.bohemiancoding.com/sketch -->
    <title>Shape</title>
    <desc>Created with Sketch.</desc>
    <defs></defs>
    <g id="iPhone-SE" stroke="none" stroke-width="1" fill="none" fill-rule="evenodd" transform="translate(-38.000000, -289.000000)">
        <g id="Scale" transform="translate(38.000000, 287.000000)" fill="#000000" fill-rule="nonzero">
            <g id="narrow" transform="translate(0.000000, 2.000000)">
                <path d="M7.12400981,7.4191655 L2.36370577,7.4191655 C1.92676987,7.4191655 1.57256333,7.76880794 1.57256333,8.20011375 C1.57256333,8.63141956 1.92676987,8.981062 2.36370577,8.981062 L5.99742298,8.97637631 L0.222083192,14.6765176 C-0.0777378052,14.9829452 -0.0734499432,15.4700272 0.231720434,15.7712654 C0.536890811,16.0725035 1.03033101,16.0767361 1.3407586,15.7807784 L7.11768067,10.0790752 L7.11768067,13.6729991 C7.11768067,14.1043049 7.47188721,14.4539474 7.90882311,14.4539474 C8.34575901,14.4539474 8.69996555,14.1043049 8.69996555,13.6729991 L8.69996555,8.97481442 C8.69865851,8.11618823 7.99384416,7.4204557 7.12400981,7.4191655 M16.7680361,0.228974935 C16.6197781,0.0823781728 16.4185455,0 16.2086984,0 C15.9988514,0 15.7976188,0.0823781728 15.6493607,0.228974935 L10.2751301,5.53395642 L10.2751301,1.95252773 C10.2751301,1.52122192 9.9209236,1.17157948 9.4839877,1.17157948 C9.0470518,1.17157948 8.69284526,1.52122192 8.69284526,1.95252773 L8.69284526,6.65149336 C8.69284526,7.50897455 9.4001266,8.20636134 10.268801,8.20636134 L15.0283139,8.20636134 C15.4652498,8.20636134 15.8194563,7.85671889 15.8194563,7.42541308 C15.8194563,6.99410727 15.4652498,6.64446483 15.0283139,6.64446483 L11.3819384,6.64993147 L16.7680361,1.33323576 C16.9165465,1.18688806 17,0.988248441 17,0.78110535 C17,0.573962258 16.9165465,0.375322636 16.7680361,0.228974935" id="Shape"></path>
            </g>
        </g>
    </g>
</svg>